<svg xmlns:inkscape="http://www.inkscape.org/namespaces/inkscape" xmlns:rdf="http://www.w3.org/1999/02/22-rdf-syntax-ns#" xmlns="http://www.w3.org/2000/svg" sodipodi:docname="logotipo.svg" enable-background="new 0 0 305 70" xmlns:sodipodi="http://sodipodi.sourceforge.net/DTD/sodipodi-0.dtd" xml:space="preserve" viewBox="0 0 305 70" version="1.1" y="0px" x="0px" xmlns:cc="http://creativecommons.org/ns#" xmlns:xlink="http://www.w3.org/1999/xlink" inkscape:version="0.91 r13725" xmlns:dc="http://purl.org/dc/elements/1.1/"><defs><polygon id="SVGID_1_" points="31.5 58.359 52 46.636 52 23.189 31.5 11.466 11 23.189 11 46.576 11 46.636"/></defs><sodipodi:namedview bordercolor="#666666" inkscape:pageshadow="2" guidetolerance="10" pagecolor="#ffffff" gridtolerance="10" inkscape:window-maximized="1" inkscape:zoom="1" objecttolerance="10" inkscape:guide-bbox="true" borderopacity="1" inkscape:current-layer="layer2" inkscape:cx="9.8035228" inkscape:cy="41.142818" inkscape:window-y="298" inkscape:window-x="-8" inkscape:window-width="1366" showgrid="false" inkscape:pageopacity="0" inkscape:window-height="705" showguides="true"><sodipodi:guide position="30.991164,56.789513" orientation="1,0"/></sodipodi:namedview><g inkscape:groupmode="layer" stroke="#fff" inkscape:label="Layer 2" fill="#fff"><rect height="9.9082" width="1.89" y="56.691" x="30.048"/><rect height="5.4982" width="5.1546" y="20.058" x="49.656"/><rect height="4.9828" width="2.2909" y="17.939" x="54.982"/><rect height="1.1596" width="1.4962" y="19.104" x="57.105"/></g><g fill="#babfb7"><path d="m91.594 28.048c-2.024-2.092-4.825-3.375-7.762-3.375-5.669 0-10.259 4.927-10.259 10.529s4.623 10.53 10.327 10.53c2.868 0 5.669-1.35 7.693-3.375v3.51c-2.192 1.586-4.893 2.498-7.593 2.498-7.188 0-13.263-5.84-13.263-13.061 0-7.29 5.974-13.263 13.263-13.263 2.835 0 5.332 0.81 7.593 2.498v3.509z" inkscape:connector-curvature="0"/><path d="m121.63 35.236c0 7.324-6.007 13.129-13.264 13.129-7.255 0-13.263-5.805-13.263-13.129 0-7.29 6.008-13.195 13.263-13.195 7.257 0 13.264 5.906 13.264 13.195zm-23.689-0.033c0 5.737 4.657 10.53 10.428 10.53s10.429-4.793 10.429-10.53c0-5.771-4.59-10.529-10.429-10.529-5.838-0.001-10.428 4.758-10.428 10.529z" inkscape:connector-curvature="0"/><path d="m128.79 21.029 9.247 21.362 9.281-21.362 5.162 26.897h-2.901l-3.274-17.211h-0.066l-8.201 18.256-8.167-18.256h-0.067l-3.273 17.211h-2.902l5.161-26.897z" inkscape:connector-curvature="0"/><path d="m158.56 47.926h-2.836v-25.447h4.186c2.193 0 4.455 0.068 6.311 1.35 1.889 1.316 2.869 3.543 2.869 5.805 0 2.058-0.844 4.151-2.43 5.467-1.723 1.418-3.916 1.688-6.041 1.688h-2.059v11.137zm0-13.77h1.889c3.139 0 5.805-0.944 5.805-4.589 0-4.151-3.34-4.455-6.646-4.455h-1.047v9.044z" inkscape:connector-curvature="0"/><path d="m175.46 37.633c0 1.889-0.068 4.049 1.113 5.67 1.113 1.551 3.273 2.43 5.129 2.43 1.822 0 3.814-0.844 4.996-2.262 1.35-1.619 1.248-3.848 1.248-5.838v-15.154h2.834v15.929c0 2.768-0.201 4.961-2.227 7.055-1.754 1.889-4.285 2.902-6.852 2.902-2.395 0-4.857-0.912-6.58-2.6-2.227-2.125-2.498-4.455-2.498-7.357v-15.929h2.836v15.154z" inkscape:connector-curvature="0"/><path d="m202.57 47.926h-2.836v-22.814h-6.143v-2.633h15.188v2.633h-6.209v22.814z" inkscape:connector-curvature="0"/><path d="m211.68 22.479h13.195v2.633h-10.359v7.56h10.057v2.632h-10.057v9.989h10.359v2.633h-13.195v-25.447z" inkscape:connector-curvature="0"/><path d="m229.7 22.479h4.791c3.814 0 6.92 0.507 9.922 3.071 2.902 2.498 4.219 5.906 4.219 9.686 0 3.713-1.35 6.986-4.15 9.482-3.037 2.701-6.074 3.207-10.057 3.207h-4.725v-25.446zm4.893 22.814c3.105 0 5.705-0.439 8.033-2.631 2.092-1.959 3.172-4.625 3.172-7.459 0-2.902-1.113-5.704-3.307-7.626-2.33-2.059-4.895-2.464-7.898-2.464h-2.059v20.181h2.059z" inkscape:connector-curvature="0"/></g><g fill="#0084c9"><path d="m255.42 45.293h7.02v2.633h-9.855v-25.447h2.836v22.814z" inkscape:connector-curvature="0"/><path d="m268.14 47.926h-2.836v-25.447h2.836v25.447z" inkscape:connector-curvature="0"/><path d="m276.14 25.112v7.56h8.471v2.632h-8.471v12.622h-2.834v-25.447h11.574v2.633h-8.74z" inkscape:connector-curvature="0"/><path d="m289.44 22.479h13.195v2.633h-10.361v7.56h10.057v2.632h-10.057v9.989h10.361v2.633h-13.195v-25.447z" inkscape:connector-curvature="0"/></g><polygon points="59.435 18.636 31.223 2.372 3 18.642 3 51.184 31 67.453 31 34.953" fill="#fff" transform="matrix(1 0 0 1.0094 0 -.022227)"/><polygon points="60 18.642 59.686 18.636 31 34.953 31 67.453 60 51.184" fill="#f2f2f2"/><polygon points="52 23.189 31 11.466 30.03 33.969 11 46.576 11 46.636 29.604 57.28 31.494 56.498 33.041 57.481 52 46.636" fill="#0084c9"/><polygon points="31 11.466 11 23.189 11 46.576 31 34.953" fill="#00709e"/><polygon stroke="#babfb7" points="59.5 18.642 59.5 51.184 31 67.453 2.5 51.184 2.5 18.642 31 2.372" stroke-miterlimit="10" fill="none"/><rect transform="rotate(-30)" height=".88344" width="1.7669" y="65.426" x="-1.1562" fill="#0084c9"/><g transform="translate(-.50835 .30859)"><clipPath id="SVGID_2_"><use xlink:href="#SVGID_1_" height="100%" width="100%" y="0" x="0" overflow="visible"/></clipPath><g fill="#fff" clip-path="url(#SVGID_2_)"><path inkscape:connector-curvature="0" d="m29.129 58.403s0.021-0.075 0.06-0.214c0.036-0.123 0.089-0.336 0.155-0.602 0.063-0.27 0.146-0.596 0.224-0.978 0.041-0.19 0.083-0.394 0.128-0.608 0.042-0.215 0.086-0.442 0.13-0.68 0.094-0.473 0.171-0.992 0.265-1.539 0.074-0.551 0.174-1.13 0.238-1.734 0.036-0.302 0.072-0.608 0.109-0.92 0.031-0.313 0.061-0.627 0.09-0.946 0.066-0.637 0.104-1.286 0.146-1.937l0.03-0.487 0.018-0.487c0.012-0.324 0.021-0.647 0.033-0.969 0.024-0.642 0.01-1.273 0.018-1.887 0.004-0.309-0.006-0.609-0.017-0.902-0.009-0.296-0.019-0.584-0.026-0.865-0.01-0.564-0.053-1.094-0.085-1.584-0.038-0.49-0.056-0.941-0.1-1.339-0.043-0.397-0.079-0.744-0.109-1.029-0.062-0.573-0.097-0.899-0.097-0.899l1.07-0.201s0.074 0.326 0.205 0.898c0.064 0.287 0.145 0.635 0.234 1.035 0.092 0.398 0.164 0.854 0.262 1.35 0.092 0.497 0.198 1.033 0.276 1.607 0.042 0.287 0.085 0.58 0.131 0.881s0.093 0.609 0.124 0.924c0.066 0.628 0.158 1.277 0.211 1.939 0.027 0.331 0.055 0.666 0.083 1.002l0.042 0.504 0.027 0.506c0.035 0.677 0.021 1.354 0.028 2.021 0.009 0.335-0.032 0.665-0.032 0.992v0.971c0 0.638 0.029 1.253 0.02 1.839-0.029 0.586-0.022 1.141-0.063 1.652-0.018 0.256-0.021 0.502-0.037 0.736-0.021 0.234-0.035 0.455-0.055 0.665-0.036 0.417-0.08 0.784-0.113 1.087-0.039 0.304-0.067-0.117-0.098 0.063-0.025 0.166-0.039 0.254-0.039 0.254l-3.486-0.119z"/><path inkscape:connector-curvature="0" d="m27.846 32.5c3.055 1.805 3.6 6.536 3.6 6.536s-4.406 1.805-7.461 0-5.55-7.687-5.55-7.687 6.358-0.654 9.411 1.151z"/><path inkscape:connector-curvature="0" d="m33.122 30.498c-3.144 3.129-2.345 9.03-2.345 9.03s5.896 0.827 9.039-2.302c3.146-3.129 4.354-11.027 4.354-11.027s-7.903 1.17-11.048 4.299z"/></g></g></svg>
